Coordinates
version=1
nRows=12
nColumns=24
inDegrees=yes

Units are S.I. units (second, meters, Newtons, ...)
Angles are in degrees.

endheader
time	pelvis_tilt	pelvis_list	pelvis_rotation	pelvis_tx	pelvis_ty	pelvis_tz	hip_flexion_r	hip_adduction_r	hip_rotation_r	knee_angle_r	ankle_angle_r	subtalar_angle_r	mtp_angle_r	hip_flexion_l	hip_adduction_l	hip_rotation_l	knee_angle_l	ankle_angle_l	subtalar_angle_l	mtp_angle_l	lumbar_extension	lumbar_bending	lumbar_rotation
      1.42883333	     -0.49263841	      1.40745044	    -17.30404609	      0.92065952	      0.98627868	      0.28741403	    -16.07502822	     -2.67922167	      7.79760270	    -13.35146690	     13.62065586	      0.82008225	     15.94077447	     22.96659820	     -2.56766613	    -14.02359602	      5.20497336	      2.77799968	    -13.07415314	      7.49805658	     -1.00999910	     -0.91001998	     12.74481778
      1.43300000	     -0.42831611	      1.50204500	    -17.42778691	      0.92652560	      0.98581374	      0.28722814	    -16.21394700	     -2.93200602	      7.72978785	    -13.78257033	     13.44844452	      0.92504864	     16.06733450	     22.95527750	     -2.47378924	    -14.00440055	      4.70112553	      2.78870054	    -13.38981793	      7.52170327	     -1.02452703	     -1.06866010	     12.85532744
      1.43716667	     -0.36984345	      1.59930649	    -17.55873702	      0.93242158	      0.98536559	      0.28701212	    -16.31457114	     -3.19234292	      7.63271299	    -14.27204187	     13.27168955	      1.06627060	     16.36695930	     22.93314557	     -2.37319650	    -13.96203553	      4.21064858	      2.72262270	    -13.76590535	      7.58450798	     -1.02625986	     -1.20746280	     12.99818933
      1.44133333	     -0.30186819	      1.71468308	    -17.68003886	      0.93837367	      0.98495250	      0.28679131	    -16.42334492	     -3.47053052	      7.54292610	    -14.75492042	     13.05394622	      1.17089465	     16.94521087	     22.89938958	     -2.24345842	    -13.89211447	      3.69981474	      2.62954596	    -14.16447373	      7.71096375	     -1.03253658	     -1.38748390	     13.11529410
      1.44550000	     -0.21498343	      1.84999731	    -17.79313827	      0.94438855	      0.98458042	      0.28655129	    -16.53818606	     -3.77729680	      7.40722567	    -15.25331348	     12.82762095	      1.31968238	     17.97790790	     22.84879905	     -2.08079245	    -13.85508150	      3.18192111	      2.46428392	    -14.53469738	      7.96152757	     -1.03966072	     -1.58765542	     13.24842646
      1.44966667	     -0.16235950	      1.98963996	    -17.88264857	      0.95045258	      0.98422235	      0.28632206	    -16.64059221	     -4.05663500	      7.36686886	    -15.70526753	     12.47572720	      1.23637273	     18.03967088	     22.85631142	     -1.92303998	    -13.87158485	      2.59026520	      2.36869675	    -14.68173586	      7.97602294	     -0.99834846	     -1.80169817	     13.24885005
      1.45383333	     -0.09227151	      2.15784681	    -17.99148800	      0.95653457	      0.98387986	      0.28604448	    -16.68949354	     -4.39095316	      7.21896193	    -16.27685061	     12.21374795	      1.41889823	     18.48144301	     22.81740645	     -1.71980028	    -13.78806397	      2.07761763	      2.05787494	    -15.11817205	      8.08761806	     -0.98666226	     -2.03509992	     13.38675402
      1.45800000	     -0.01784857	      2.29897213	    -18.06762751	      0.96270039	      0.98362335	      0.28577768	    -16.80626219	     -4.67547124	      7.17975185	    -16.72709839	     11.70408067	      1.20886297	     22.76105890	     22.74916580	     -1.52412542	    -13.64247450	      1.59188142	      1.70502423	    -15.61307975	      9.22625606	     -0.95701356	     -2.23973383	     13.35420499
      1.46216667	      0.05250325	      2.51388083	    -18.15720754	      0.96886446	      0.98333380	      0.28545369	    -16.79926511	     -5.05500722	      6.95963998	    -17.38291379	     11.40551387	      1.42313343	     22.84952948	     22.74894728	     -1.27068125	    -13.73297043	      1.00774684	      1.41733832	    -15.73691052	      9.25026135	     -0.91147392	     -2.53738084	     13.48452880
      1.46633333	      0.12819953	      2.71447071	    -18.20554553	      0.97509358	      0.98310097	      0.28509781	    -16.83128146	     -5.40288685	      6.77159259	    -17.98248019	     10.98080669	      1.49818897	     23.25829557	     22.70545766	     -0.99807313	    -13.61566249	      0.49797029	      0.99816171	    -16.17740412	      9.37707046	     -0.87026187	     -2.81512869	     13.57131623
      1.47050000	      0.20487660	      2.91991847	    -18.27741746	      0.98132261	      0.98292931	      0.28477608	    -16.83578339	     -5.75503536	      6.64465970	    -18.62045245	     10.49621327	      1.44737802	     23.30597866	     22.68481338	     -0.74108554	    -13.68182881	     -0.07525994	      0.67951427	    -16.30480722	      9.38833838	     -0.81431130	     -3.08715248	     13.57887942
      1.47466667	      0.26075478	      3.17180015	    -18.34040012	      0.98757755	      0.98272668	      0.28438508	    -16.75184693	     -6.15875768	      6.42110793	    -19.36477749	     10.10213539	      1.68108450	     23.60249514	     22.66013961	     -0.42009803	    -13.60384007	     -0.54679074	      0.13157885	    -16.73836609	      9.46568338	     -0.74025837	     -3.41382656	     13.65627159
